<svg width="201" height="202" viewBox="0 0 201 202" fill="none" xmlns="http://www.w3.org/2000/svg">
<path d="M94.8252 27.7482V37.1869" stroke="#121212" stroke-linecap="round" stroke-linejoin="round"/>
<path d="M94.8086 10.3076C94.8086 12.4051 94.8086 14.5113 94.8086 16.6263" stroke="#121212" stroke-linecap="round" stroke-linejoin="round"/>
<path d="M94.8252 1C94.8252 3.26179 94.8252 5.52009 94.8252 7.77489" stroke="#121212" stroke-linecap="round" stroke-linejoin="round"/>
<path d="M80.21 10.423C81.7097 19.9036 83.5817 28.776 85.0761 38.0259" stroke="#121212" stroke-linecap="round" stroke-linejoin="round"/>
<path d="M78.7998 2.40002L79.7856 7.84825" stroke="#121212" stroke-linecap="round" stroke-linejoin="round"/>
<path d="M64.3896 9.67834C66.2774 15.2262 68.1494 20.3703 70.0214 25.9811C72.3549 30.6585 73.7602 35.8026 75.6322 40.5586" stroke="#121212" stroke-linecap="round" stroke-linejoin="round"/>
<path d="M54.1338 22.8138C58.3288 30.1918 62.5238 37.2079 66.7659 44.6959" stroke="#121212" stroke-linecap="round" stroke-linejoin="round"/>
<path d="M48.6807 13.3646C50.079 15.8117 51.4773 18.2448 52.8756 20.6639" stroke="#121212" stroke-linecap="round" stroke-linejoin="round"/>
<path d="M48.6484 38.2095C51.9625 42.2891 55.2031 46.4264 58.7531 50.3067" stroke="#121212" stroke-linecap="round" stroke-linejoin="round"/>
<path d="M43.1064 31.6548C44.4698 33.1755 45.7965 34.7328 47.0969 36.3112" stroke="#121212" stroke-linecap="round" stroke-linejoin="round"/>
<path d="M30.1533 39.0275C37.2848 45.1574 44.7676 51.2349 51.8361 57.2232" stroke="#121212" stroke-linecap="round" stroke-linejoin="round"/>
<path d="M24.124 33.9673L28.2718 37.4439" stroke="#121212" stroke-linecap="round" stroke-linejoin="round"/>
<path d="M30.9814 56.4523C36.0364 59.4097 41.1018 62.3724 46.2249 65.2145" stroke="#121212" stroke-linecap="round" stroke-linejoin="round"/>
<path d="M24.0869 52.4514L29.0737 55.3564" stroke="#121212" stroke-linecap="round" stroke-linejoin="round"/>
<path d="M18.3555 65.4558C26.0637 69.0058 34.4799 70.8726 42.0938 74.0975" stroke="#121212" stroke-linecap="round" stroke-linejoin="round"/>
<path d="M8.09863 61.7275L16.0167 64.6063" stroke="#121212" stroke-linecap="round" stroke-linejoin="round"/>
<path d="M17.7529 79.703C25.1308 80.6941 32.1417 82.5661 39.5616 83.5467" stroke="#121212" stroke-linecap="round" stroke-linejoin="round"/>
<path d="M11.5498 78.5284C12.9918 78.8483 14.4339 79.1629 15.8916 79.3727" stroke="#121212" stroke-linecap="round" stroke-linejoin="round"/>
<path d="M14.5166 93.2894C22.3245 93.3209 30.7407 93.3209 38.7111 93.2894" stroke="#121212" stroke-linecap="round" stroke-linejoin="round"/>
<path d="M2.53516 93.2894H11.9739" stroke="#121212" stroke-linecap="round" stroke-linejoin="round"/>
<path d="M14.3545 107.427C22.7444 105.853 31.1344 104.228 39.5611 103.032" stroke="#121212" stroke-linecap="round" stroke-linejoin="round"/>
<path d="M7.10254 108.759C8.91337 108.433 10.7207 108.103 12.5245 107.767" stroke="#121212" stroke-linecap="round" stroke-linejoin="round"/>
<path d="M21.2871 120.054C28.4028 117.636 34.947 114.81 42.0942 112.482" stroke="#121212" stroke-linecap="round" stroke-linejoin="round"/>
<path d="M8.09863 124.857L18.9269 120.913" stroke="#121212" stroke-linecap="round" stroke-linejoin="round"/>
<path d="M26.499 132.738C33.0799 128.858 39.6083 125.119 46.2259 121.349" stroke="#121212" stroke-linecap="round" stroke-linejoin="round"/>
<path d="M14.9004 139.434L24.2027 134.059" stroke="#121212" stroke-linecap="round" stroke-linejoin="round"/>
<path d="M32.2305 145.973C38.8725 140.544 45.408 135.007 51.8368 129.361" stroke="#121212" stroke-linecap="round" stroke-linejoin="round"/>
<path d="M43.3047 154.688C48.9784 148.501 53.1839 141.951 58.7527 136.278" stroke="#121212" stroke-linecap="round" stroke-linejoin="round"/>
<path d="M35.5029 163.991L41.6538 156.649" stroke="#121212" stroke-linecap="round" stroke-linejoin="round"/>
<path d="M59.5088 154.458C61.6063 149.901 64.4064 146.162 66.7661 141.873" stroke="#121212" stroke-linecap="round" stroke-linejoin="round"/>
<path d="M54.6162 162.848C55.7161 160.738 56.9237 158.687 58.2344 156.702" stroke="#121212" stroke-linecap="round" stroke-linejoin="round"/>
<path d="M52.1924 167.394C52.6294 166.576 53.0628 165.756 53.4928 164.935" stroke="#121212" stroke-linecap="round" stroke-linejoin="round"/>
<path d="M67.1484 169.329C70.022 161.594 72.8274 154.122 75.6328 146.021" stroke="#121212" stroke-linecap="round" stroke-linejoin="round"/>
<path d="M63.2578 180.016C64.2681 177.243 65.2766 174.471 66.2834 171.699" stroke="#121212" stroke-linecap="round" stroke-linejoin="round"/>
<path d="M82.2656 165.16C83.241 159.633 84.1376 154.091 85.0763 148.553" stroke="#121212" stroke-linecap="round" stroke-linejoin="round"/>
<path d="M80.3574 175.322C80.8818 172.784 81.3485 170.236 81.8099 167.693" stroke="#121212" stroke-linecap="round" stroke-linejoin="round"/>
<path d="M94.8252 174.819C94.8252 166.266 94.8252 157.85 94.8252 149.403" stroke="#121212" stroke-linecap="round" stroke-linejoin="round"/>
<path d="M94.8252 185.579V177.016" stroke="#121212" stroke-linecap="round" stroke-linejoin="round"/>
<path d="M107.792 166.849C106.492 160.656 105.558 154.578 104.567 148.553" stroke="#121212" stroke-linecap="round" stroke-linejoin="round"/>
<path d="M109.491 176.413C108.786 173.972 108.34 171.464 108.159 168.93" stroke="#121212" stroke-linecap="round" stroke-linejoin="round"/>
<path d="M110.85 184.179C110.82 183.195 110.723 182.214 110.562 181.242" stroke="#121212" stroke-linecap="round" stroke-linejoin="round"/>
<path d="M122.553 169.476C120.052 161.61 116.785 154.112 114.017 146.021" stroke="#121212" stroke-linecap="round" stroke-linejoin="round"/>
<path d="M126.387 180.016C125.397 177.289 124.405 174.56 123.408 171.83" stroke="#121212" stroke-linecap="round" stroke-linejoin="round"/>
<path d="M134.43 161.888C130.812 155.512 126.601 148.501 122.894 141.888" stroke="#121212" stroke-linecap="round" stroke-linejoin="round"/>
<path d="M139.365 170.435L135.511 163.765" stroke="#121212" stroke-linecap="round" stroke-linejoin="round"/>
<path d="M147.614 156.204C141.568 149.911 136.89 142.418 130.892 136.278" stroke="#121212" stroke-linecap="round" stroke-linejoin="round"/>
<path d="M154.147 163.991L149.176 158.065" stroke="#121212" stroke-linecap="round" stroke-linejoin="round"/>
<path d="M148.012 137.919L137.808 129.34" stroke="#121212" stroke-linecap="round" stroke-linejoin="round"/>
<path d="M155.474 144.185L149.753 139.382" stroke="#121212" stroke-linecap="round" stroke-linejoin="round"/>
<path d="M162.039 132.098C156.062 128.391 149.517 125.119 143.419 121.349" stroke="#121212" stroke-linecap="round" stroke-linejoin="round"/>
<path d="M174.75 139.434C171.493 136.812 167.283 135.874 164.1 133.289" stroke="#121212" stroke-linecap="round" stroke-linejoin="round"/>
<path d="M169.553 120.489C162.138 118.103 155.127 114.831 147.529 112.482" stroke="#121212" stroke-linecap="round" stroke-linejoin="round"/>
<path d="M180.932 124.621L171.436 121.165" stroke="#121212" stroke-linecap="round" stroke-linejoin="round"/>
<path d="M172.982 107.07C164.944 106.415 157.933 104.076 150.083 103.032" stroke="#121212" stroke-linecap="round" stroke-linejoin="round"/>
<path d="M185.709 109.314L174.965 107.421" stroke="#121212" stroke-linecap="round" stroke-linejoin="round"/>
<path d="M165.783 93.2894C160.749 93.3209 156.071 93.3209 150.948 93.2894" stroke="#121212" stroke-linecap="round" stroke-linejoin="round"/>
<path d="M175.526 93.3105C173.037 93.3105 170.542 93.3105 168.043 93.3105" stroke="#121212" stroke-linecap="round" stroke-linejoin="round"/>
<path d="M185.184 93.2999H179.327" stroke="#121212" stroke-linecap="round" stroke-linejoin="round"/>
<path d="M173.601 79.3989C165.882 81.1608 157.933 82.0994 150.083 83.5467" stroke="#121212" stroke-linecap="round" stroke-linejoin="round"/>
<path d="M185.709 77.2648L175.992 79.0004" stroke="#121212" stroke-linecap="round" stroke-linejoin="round"/>
<path d="M170.25 65.8124C162.683 68.5758 155.142 71.3969 147.555 74.0975" stroke="#121212" stroke-linecap="round" stroke-linejoin="round"/>
<path d="M178.053 62.9965L172.337 65.052" stroke="#121212" stroke-linecap="round" stroke-linejoin="round"/>
<path d="M181.545 61.7275L179.94 62.3201" stroke="#121212" stroke-linecap="round" stroke-linejoin="round"/>
<path d="M162.873 54.0035C156.056 57.3123 149.984 61.523 143.419 65.2356" stroke="#121212" stroke-linecap="round" stroke-linejoin="round"/>
<path d="M174.749 47.1448L165.032 52.7818" stroke="#121212" stroke-linecap="round" stroke-linejoin="round"/>
<path d="M155.621 42.2943C149.984 47.5118 143.434 51.733 137.792 57.2442" stroke="#121212" stroke-linecap="round" stroke-linejoin="round"/>
<path d="M162.327 36.6469L157.162 40.9834" stroke="#121212" stroke-linecap="round" stroke-linejoin="round"/>
<path d="M165.519 33.9673L164.046 35.2048" stroke="#121212" stroke-linecap="round" stroke-linejoin="round"/>
<path d="M146.245 32.0114C141.096 38.1413 135.952 44.2187 130.892 50.3067" stroke="#121212" stroke-linecap="round" stroke-linejoin="round"/>
<path d="M154.148 22.5936L147.897 30.0397" stroke="#121212" stroke-linecap="round" stroke-linejoin="round"/>
<path d="M134.845 24.0148L123.797 43.1544L122.905 44.696" stroke="#121212" stroke-linecap="round" stroke-linejoin="round"/>
<path d="M137.503 19.3635L134.976 23.742" stroke="#121212" stroke-linecap="round" stroke-linejoin="round"/>
<path d="M121.809 19.1537C119.119 25.9705 116.78 33.4638 114.017 40.5586" stroke="#121212" stroke-linecap="round" stroke-linejoin="round"/>
<path d="M126.387 6.5636L122.606 16.9619" stroke="#121212" stroke-linecap="round" stroke-linejoin="round"/>
<path d="M107.577 20.858C106.948 26.9198 105.076 32.5306 104.552 38.026" stroke="#121212" stroke-linecap="round" stroke-linejoin="round"/>
<path d="M110.849 2.40002C109.769 7.74338 109.276 13.3594 107.991 18.6084" stroke="#121212" stroke-linecap="round" stroke-linejoin="round"/>
<path d="M0.60549 62.4511C4.49633 67.4379 12.472 64.3022 12.75 64.1921L6.12189 68.1091C6.00127 68.1811 5.90065 68.2822 5.82927 68.4032C5.75788 68.5242 5.71801 68.6611 5.71331 68.8015C5.70861 68.9419 5.73924 69.0812 5.80238 69.2067C5.86552 69.3322 5.95915 69.4398 6.07469 69.5197C12.2518 73.657 17.8206 69.3414 18.2926 68.9638L13.311 73.7199C13.216 73.812 13.1439 73.9252 13.1006 74.0503C13.0574 74.1754 13.0441 74.309 13.062 74.4401C13.0799 74.5713 13.1283 74.6964 13.2035 74.8054C13.2786 74.9144 13.3783 75.0042 13.4946 75.0675C17.0813 77.0654 21.8478 73.8772 21.8478 73.8772L19.8604 76.1006C19.777 76.1923 19.7151 76.3014 19.6793 76.4201C19.6434 76.5387 19.6344 76.6639 19.653 76.7865C19.6716 76.909 19.7173 77.0259 19.7867 77.1286C19.8562 77.2312 19.9476 77.3172 20.0545 77.38C23.9715 79.509 29.6452 76.6511 29.6452 76.6511L26.2997 80.1697C26.2119 80.2654 26.1474 80.3801 26.1112 80.5048C26.0749 80.6295 26.068 80.7609 26.0908 80.8888C26.1136 81.0166 26.1656 81.1375 26.2428 81.242C26.32 81.3464 26.4202 81.4317 26.5357 81.4911C30.458 83.5886 37.7887 82.587 37.7887 82.587L33.7301 84.8943C33.6305 84.9498 33.5434 85.0252 33.4743 85.1159C33.4052 85.2066 33.3556 85.3105 33.3285 85.4213C33.3015 85.532 33.2975 85.6472 33.317 85.7595C33.3365 85.8718 33.3789 85.9789 33.4417 86.0741C36.268 90.2062 45.8378 89.7709 45.8378 89.7709L39.4825 91.9104C39.359 91.9501 39.2466 92.0183 39.1543 92.1094C39.062 92.2006 38.9924 92.3121 38.9511 92.435C38.9098 92.558 38.8979 92.6889 38.9164 92.8173C38.9349 92.9456 38.9833 93.0679 39.0577 93.1741C41.8946 96.9444 48.9788 96.5668 48.9788 96.5668L45.6019 98.5647C45.4984 98.6268 45.4096 98.7106 45.3414 98.8102C45.2733 98.9099 45.2274 99.023 45.207 99.142C45.1866 99.261 45.1921 99.3829 45.2232 99.4996C45.2542 99.6162 45.31 99.7248 45.3869 99.8179C50.1062 105.654 55.953 103.866 56.2466 103.772L52.5498 105.476C52.4122 105.538 52.2941 105.637 52.2082 105.761C52.1224 105.886 52.0719 106.031 52.0622 106.182C52.0525 106.332 52.084 106.483 52.1532 106.617C52.2225 106.752 52.3269 106.865 52.4554 106.944C61.3698 112.377 70.2841 104.799 70.2841 104.799L69.6391 106.546C69.5956 106.661 69.5782 106.785 69.5882 106.908C69.5983 107.031 69.6355 107.15 69.6972 107.257C69.7589 107.364 69.8436 107.455 69.945 107.526C70.0465 107.596 70.1623 107.643 70.2841 107.663C80.1056 109.33 82.009 93.5517 82.009 93.5517L83.257 97.3167C83.298 97.4349 83.3646 97.5425 83.4522 97.6319C83.5399 97.7212 83.6462 97.7899 83.7637 97.833C83.8811 97.8762 84.0066 97.8927 84.1312 97.8814C84.2558 97.8701 84.3763 97.8312 84.4841 97.7676C89.2873 94.9989 93.5505 81.1136 95.3124 74.669C95.8367 72.6607 96.1619 71.3707 96.1619 71.3707L95.9626 71.2868C71.7576 87.6944 60.2109 58.2404 43.1164 50.1651C36.5145 47.0451 29.9494 46.9035 24.0135 48.2144C12.2256 50.8363 2.91273 59.1791 0.673661 61.3237C0.523995 61.4694 0.434059 61.6657 0.421452 61.8742C0.408845 62.0827 0.474471 62.2885 0.60549 62.4511Z" fill="white" stroke="#121212" stroke-width="0.5" stroke-linecap="round" stroke-linejoin="round"/>
<path d="M47.353 58.7439C43.4883 57.8158 38.9106 60.317 37.5 61.2032C37.3767 61.2786 37.2848 61.396 37.2414 61.5339C37.198 61.6718 37.2061 61.8207 37.264 61.9531C39.4402 66.6724 46.3671 65.8963 46.3671 65.8963L39.8387 67.9257C39.7443 67.956 39.6587 68.0087 39.5891 68.0793C39.5195 68.1499 39.4681 68.2364 39.4393 68.3312C39.4104 68.426 39.4049 68.5265 39.4234 68.6239C39.4418 68.7213 39.4836 68.8128 39.5451 68.8905C44.579 75.398 55.8006 77.9202 55.8006 77.9202L49.6969 79.787C49.5987 79.8177 49.5099 79.8725 49.4384 79.9466C49.367 80.0206 49.3154 80.1114 49.2882 80.2106C49.2611 80.3098 49.2593 80.4142 49.2831 80.5143C49.3068 80.6144 49.3554 80.7069 49.4242 80.7833C55.077 87.0757 62.4654 83.4314 62.4654 83.4314L58.5588 87.8361C58.4866 87.9139 58.4344 88.0081 58.407 88.1107C58.3796 88.2132 58.3777 88.3209 58.4015 88.4244C58.4253 88.5278 58.4741 88.6239 58.5435 88.7041C58.613 88.7844 58.7011 88.8464 58.8 88.8848C66.1937 91.9891 70.6456 85.2929 70.6456 85.2929L69.02 90.6048C68.9915 90.7012 68.987 90.8032 69.0068 90.9018C69.0266 91.0004 69.0702 91.0928 69.1337 91.1707C69.1973 91.2487 69.2788 91.3101 69.3714 91.3494C69.464 91.3888 69.5648 91.405 69.665 91.3966C74.6675 90.8722 76.5605 85.0464 76.5605 85.0464L77.153 89.4774C77.172 89.616 77.2382 89.7438 77.3404 89.8393C77.4426 89.9348 77.5746 89.9922 77.7141 90.0017C83.3564 90.2797 83.8388 83.6044 83.8388 83.6044" stroke="#121212" stroke-width="0.5" stroke-linecap="round" stroke-linejoin="round"/>
<path d="M12.7393 64.1868C17.9358 62.4983 22.4664 57.4224 29.8967 54.8163" stroke="#121212" stroke-width="0.5" stroke-linecap="round" stroke-linejoin="round"/>
<path d="M18.3027 68.9324C21.2917 66.966 26.8815 62.2205 29.6869 61.4916" stroke="#121212" stroke-width="0.5" stroke-linecap="round" stroke-linejoin="round"/>
<path d="M21.7275 73.9821C24.8738 71.9632 27.6005 68.7698 29.5931 67.8417" stroke="#121212" stroke-width="0.5" stroke-linecap="round" stroke-linejoin="round"/>
<path d="M29.6191 76.6512C32.0732 75.6025 34.7528 73.1222 35.985 72.5139" stroke="#121212" stroke-width="0.5" stroke-linecap="round" stroke-linejoin="round"/>
<path d="M37.7988 82.5818C39.3719 82.4455 42.5601 80.9458 44.6157 80.6993" stroke="#121212" stroke-width="0.5" stroke-linecap="round" stroke-linejoin="round"/>
<path d="M45.749 89.8025C48.0209 89.7209 50.2652 89.2784 52.3981 88.4916" stroke="#121212" stroke-width="0.5" stroke-linecap="round" stroke-linejoin="round"/>
<path d="M48.9844 96.5669C53.646 96.6351 58.2658 93.6881 58.2658 93.6881" stroke="#121212" stroke-width="0.5" stroke-linecap="round" stroke-linejoin="round"/>
<path d="M56.2676 103.761C59.6393 103.053 64.3586 100.091 66.991 97.4688" stroke="#121212" stroke-width="0.5" stroke-linecap="round" stroke-linejoin="round"/>
<path d="M70.2832 104.8C72.968 101.8 75.5584 95.7804 75.5584 95.7804" stroke="#121212" stroke-width="0.5" stroke-linecap="round" stroke-linejoin="round"/>
<path d="M82.0045 93.5517C82.1218 92.5687 82.0416 91.5721 81.7686 90.6205" stroke="#121212" stroke-width="0.5" stroke-linecap="round" stroke-linejoin="round"/>
<path d="M53.5354 64.4753C50.8401 63.0752 46.3672 65.8963 46.3672 65.8963C48.6167 70.149 56.3984 70.6681 56.3984 70.6681" stroke="#121212" stroke-width="0.5" stroke-linecap="round" stroke-linejoin="round"/>
<path d="M62.4455 74.5065C58.9899 73.9821 55.8018 77.9201 55.8018 77.9201C60.5683 81.7952 63.8928 79.897 63.8928 79.897" stroke="#121212" stroke-width="0.5" stroke-linecap="round" stroke-linejoin="round"/>
<path d="M53.4193 70.1909C51.1488 70.1909 49.7959 72.1259 49.7959 72.1259C54.1901 76.0272 58.0862 75.6968 58.0862 75.6968" stroke="#121212" stroke-width="0.5" stroke-linecap="round" stroke-linejoin="round"/>
<path d="M67.3325 76.2003C63.9503 77.1337 63.8926 79.8709 63.8926 79.8709C67.7362 82.2463 71.6533 79.572 71.6533 79.572" stroke="#121212" stroke-width="0.5" stroke-linecap="round" stroke-linejoin="round"/>
<path d="M24.0078 48.2144C37.9456 45.3461 48.6795 55.4036 58.7842 65.8281C68.6581 76.0114 78.6789 83.7669 95.3067 74.669C95.8311 72.6607 96.1562 71.3707 96.1562 71.3707L95.9569 71.2868C71.7519 87.6944 60.2052 58.2404 43.1107 50.1651C36.5088 47.0451 29.9699 46.9035 24.0078 48.2144Z" fill="#121212" stroke="#121212" stroke-width="0.5" stroke-linecap="round" stroke-linejoin="round"/>
<path d="M200.245 64.3651C196.113 69.3519 187.66 66.2161 187.361 66.106L194.388 70.0231C194.515 70.0895 194.622 70.1883 194.698 70.3095C194.775 70.4306 194.818 70.5699 194.823 70.7131C194.829 70.8563 194.796 70.9984 194.729 71.1249C194.661 71.2515 194.562 71.358 194.44 71.4336C187.891 75.5709 181.981 71.2553 181.483 70.8778L186.758 75.6338C186.858 75.7241 186.934 75.8377 186.98 75.9646C187.026 76.0915 187.039 76.2277 187.019 76.361C187 76.4944 186.947 76.6208 186.867 76.7291C186.787 76.8373 186.681 76.924 186.559 76.9815C182.757 78.9793 177.702 75.7859 177.702 75.7859L179.8 78.0145C179.887 78.1046 179.953 78.2141 179.991 78.3341C180.029 78.4541 180.039 78.5813 180.019 78.7056C179.999 78.8299 179.95 78.9478 179.877 79.05C179.803 79.1522 179.707 79.2357 179.595 79.294C175.437 81.4229 169.422 78.5598 169.422 78.5598L172.93 82.0836C173.023 82.1775 173.092 82.2926 173.131 82.4189C173.169 82.5451 173.177 82.6789 173.153 82.8088C173.129 82.9387 173.073 83.0607 172.992 83.1646C172.91 83.2684 172.804 83.3509 172.684 83.405C168.52 85.5025 160.749 84.4957 160.749 84.4957L165.049 86.8082C165.153 86.8594 165.244 86.9322 165.317 87.0218C165.39 87.1114 165.443 87.2157 165.473 87.3276C165.502 87.4394 165.507 87.5563 165.487 87.6702C165.468 87.7842 165.424 87.8926 165.358 87.9881C162.359 92.1201 152.212 91.6849 152.212 91.6849L158.966 93.8243C159.094 93.8579 159.212 93.9222 159.309 94.0116C159.407 94.1009 159.481 94.2127 159.525 94.3372C159.569 94.4617 159.583 94.5951 159.564 94.726C159.545 94.8568 159.495 94.9811 159.417 95.088C156.407 98.8583 148.898 98.4807 148.898 98.4807L152.474 100.479C152.584 100.535 152.678 100.616 152.751 100.715C152.824 100.814 152.874 100.928 152.896 101.049C152.918 101.17 152.913 101.294 152.88 101.412C152.847 101.531 152.787 101.64 152.705 101.732C147.692 107.568 141.499 105.775 141.169 105.686L145.086 107.39C145.23 107.446 145.355 107.542 145.446 107.666C145.538 107.79 145.592 107.938 145.602 108.092C145.613 108.246 145.579 108.4 145.505 108.536C145.432 108.671 145.321 108.783 145.186 108.858C135.747 114.291 126.308 106.713 126.308 106.713L126.99 108.46C127.034 108.578 127.05 108.704 127.038 108.829C127.026 108.955 126.985 109.076 126.92 109.183C126.854 109.291 126.765 109.382 126.659 109.45C126.553 109.518 126.433 109.561 126.308 109.576C115.91 111.244 113.87 95.4604 113.87 95.4604L112.544 99.2306C112.494 99.351 112.42 99.4596 112.325 99.5491C112.231 99.6386 112.118 99.7069 111.995 99.7496C111.872 99.7922 111.741 99.8082 111.612 99.7965C111.482 99.7848 111.356 99.7456 111.243 99.6816C106.151 96.9129 101.626 83.0222 99.7593 76.5829C99.1773 74.5746 98.8574 73.2847 98.8574 73.2847L99.0724 73.2008C124.74 89.6084 136.985 60.1544 155.112 52.079C162.118 48.959 169.076 48.8174 175.374 50.1284C187.875 52.7502 197.749 61.093 200.124 63.2377C200.288 63.3721 200.393 63.5657 200.416 63.7767C200.438 63.9876 200.377 64.199 200.245 64.3651Z" fill="white" stroke="#121212" stroke-width="0.5" stroke-linecap="round" stroke-linejoin="round"/>
<path d="M150.639 60.6473C154.734 59.7192 159.59 62.2205 161.085 63.1066C161.213 63.1769 161.311 63.2932 161.357 63.4323C161.404 63.5713 161.397 63.7228 161.336 63.8565C159.029 68.5758 151.683 67.7998 151.683 67.7998L158.604 69.8291C158.702 69.8541 158.793 69.9036 158.866 69.973C158.94 70.0424 158.995 70.1294 159.026 70.2259C159.057 70.3223 159.063 70.4251 159.043 70.5244C159.024 70.6238 158.979 70.7165 158.914 70.7939C153.581 77.3067 141.662 79.8341 141.662 79.8341L148.138 81.7009C148.24 81.7265 148.333 81.7784 148.408 81.8515C148.484 81.9246 148.539 82.0162 148.567 82.1172C148.596 82.2182 148.598 82.325 148.572 82.4268C148.546 82.5286 148.494 82.6219 148.421 82.6972C142.427 88.9897 134.593 85.3453 134.593 85.3453L138.736 89.75C138.812 89.8271 138.867 89.9224 138.895 90.0267C138.924 90.131 138.926 90.2409 138.9 90.346C138.874 90.4511 138.822 90.5479 138.748 90.6271C138.675 90.7064 138.582 90.7654 138.479 90.7987C130.65 93.8821 125.931 87.1858 125.931 87.1858L127.651 92.4977C127.678 92.5972 127.681 92.702 127.658 92.8027C127.635 92.9035 127.588 92.9971 127.521 93.0753C127.453 93.1535 127.368 93.214 127.272 93.2514C127.175 93.2887 127.071 93.3018 126.969 93.2895C121.662 92.7651 119.654 86.9341 119.654 86.9341L119.025 91.3703C119.001 91.5115 118.93 91.6404 118.823 91.7357C118.716 91.831 118.58 91.8871 118.437 91.8947C112.449 92.1726 111.94 85.4974 111.94 85.4974" stroke="#121212" stroke-width="0.5" stroke-linecap="round" stroke-linejoin="round"/>
<path d="M187.345 66.1009C181.829 64.4124 177.031 59.3365 169.149 56.7303" stroke="#121212" stroke-width="0.5" stroke-linecap="round" stroke-linejoin="round"/>
<path d="M181.446 70.8464C178.3 68.88 172.348 64.1344 169.386 63.4055" stroke="#121212" stroke-width="0.5" stroke-linecap="round" stroke-linejoin="round"/>
<path d="M177.812 75.8961C174.488 73.8773 171.588 70.6839 169.485 69.7557" stroke="#121212" stroke-width="0.5" stroke-linecap="round" stroke-linejoin="round"/>
<path d="M169.453 78.5652C166.831 77.5164 164.01 75.0361 162.704 74.4279" stroke="#121212" stroke-width="0.5" stroke-linecap="round" stroke-linejoin="round"/>
<path d="M160.765 84.4958C159.118 84.3594 155.72 82.8597 153.555 82.6133" stroke="#121212" stroke-width="0.5" stroke-linecap="round" stroke-linejoin="round"/>
<path d="M152.338 91.7163C149.934 91.6367 147.557 91.1947 145.285 90.4054" stroke="#121212" stroke-width="0.5" stroke-linecap="round" stroke-linejoin="round"/>
<path d="M148.903 98.4808C143.963 98.549 139.061 95.6021 139.061 95.6021" stroke="#121212" stroke-width="0.5" stroke-linecap="round" stroke-linejoin="round"/>
<path d="M141.185 105.675C137.609 104.967 132.606 101.978 129.812 99.3827" stroke="#121212" stroke-width="0.5" stroke-linecap="round" stroke-linejoin="round"/>
<path d="M126.319 106.713C123.45 103.714 120.724 97.6837 120.724 97.6837" stroke="#121212" stroke-width="0.5" stroke-linecap="round" stroke-linejoin="round"/>
<path d="M113.87 95.4657C113.747 94.4818 113.833 93.4829 114.122 92.5344" stroke="#121212" stroke-width="0.5" stroke-linecap="round" stroke-linejoin="round"/>
<path d="M144.079 66.4155C146.937 65.0154 151.682 67.8365 151.682 67.8365C149.297 72.0892 141.043 72.6083 141.043 72.6083" stroke="#121212" stroke-width="0.5" stroke-linecap="round" stroke-linejoin="round"/>
<path d="M134.629 76.4205C138.299 75.8961 141.676 79.8342 141.676 79.8342C136.621 83.7093 133.098 81.8111 133.098 81.8111" stroke="#121212" stroke-width="0.5" stroke-linecap="round" stroke-linejoin="round"/>
<path d="M144.205 72.1049C144.947 72.1283 145.675 72.3137 146.338 72.6479C147.001 72.9821 147.583 73.4572 148.043 74.0398C143.387 77.9359 139.255 77.6108 139.255 77.6108" stroke="#121212" stroke-width="0.5" stroke-linecap="round" stroke-linejoin="round"/>
<path d="M129.45 78.1141C133.036 79.0475 133.12 81.811 133.12 81.811C129.041 84.1864 124.888 81.5121 124.888 81.5121" stroke="#121212" stroke-width="0.5" stroke-linecap="round" stroke-linejoin="round"/>
<path d="M175.394 50.1284C160.618 47.2601 149.228 57.3175 138.515 67.742C128.028 77.9253 117.409 85.6808 99.7799 76.583C99.1978 74.5746 98.8779 73.2847 98.8779 73.2847L99.0929 73.2008C124.761 89.6084 137.005 60.1544 155.133 52.079C162.138 48.959 169.097 48.8174 175.394 50.1284Z" fill="#121212" stroke="#121212" stroke-width="0.5" stroke-linecap="round" stroke-linejoin="round"/>
<path d="M93.7759 64.1344L92.7954 72.6083H83.5664L85.9838 97.432H96.1146H106.246L108.663 72.6083H98.8886L98.0076 64.0243" fill="white"/>
<path d="M93.7759 64.1344L92.7954 72.6083H83.5664L85.9838 97.432H96.1146H106.246L108.663 72.6083H98.8886L98.0076 64.0243" stroke="#121212" stroke-width="0.5" stroke-linecap="round" stroke-linejoin="round"/>
<path d="M85.9832 97.4321H96.1141H106.245L107.86 108.905L96.1141 113.84L84.3682 108.905L85.9832 97.4321Z" fill="#FF8080"/>
<path d="M106.722 108.89C109.869 121.926 104.808 149.219 104.808 149.219C108.537 158.71 100.189 177.378 99.5961 190.047H93.4189L96.3974 113.174L106.722 108.89Z" fill="white" stroke="#121212" stroke-width="0.5" stroke-linecap="round" stroke-linejoin="round"/>
<path d="M99.5964 190.062C99.8376 194.305 104.893 199.155 106.938 200.424C106.979 200.442 107.015 200.471 107.041 200.508C107.067 200.545 107.083 200.588 107.087 200.633C107.09 200.678 107.082 200.724 107.062 200.764C107.042 200.805 107.012 200.84 106.974 200.865C106.167 201.462 105.128 200.865 104.777 200.424C103.474 200.353 102.23 199.86 101.232 199.019L96.2666 189.166L99.5964 190.062Z" fill="white" stroke="#121212" stroke-width="0.5" stroke-linecap="round" stroke-linejoin="round"/>
<path d="M102.654 200.781C102.266 200.109 99.5704 194.839 99.3921 190.062L96.4137 113.189L85.4962 108.418C82.35 121.453 88.0237 149.235 88.0237 149.235C84.4894 158.233 91.8097 175.49 93.0787 188.038C92.837 188.412 92.7229 188.853 92.7535 189.297C92.9109 190.429 94.0015 192.847 94.1169 194.273C94.2323 195.699 93.0682 199.165 94.7776 200.623C96.4871 202.081 100.892 201.908 101.18 201.237C101.857 201.766 103.042 201.452 102.654 200.781Z" fill="white" stroke="#121212" stroke-width="0.5" stroke-linecap="round" stroke-linejoin="round"/>
<path d="M147.75 73.9035C147.651 73.657 143.167 74.4278 143.167 74.4278C143.167 74.4278 146.812 72.8547 146.502 72.5925C146.324 72.4352 144.237 73.0435 142.533 73.7619C141.232 74.3125 140.22 75.0256 140.073 74.9103C139.549 74.4541 140.073 71.9633 139.077 72.1678C139.444 73.8825 138.112 75.7965 138.553 77.658C135.433 82.5189 125.968 89.3672 122.769 93.3262L112.874 75.1095C112.463 74.3548 111.857 73.7245 111.119 73.2845C110.381 72.8444 109.538 72.6109 108.679 72.6083L107.693 82.7077C107.693 82.7077 117.599 96.6298 122.428 98.1714C128.17 96.6979 140.818 79.4513 140.818 79.4513C140.818 79.4513 142.533 77.3538 143.786 77.2332C143.786 77.2332 147.163 77.4954 147.126 77.2332C147.089 76.971 143.896 76.2422 143.896 76.2422C143.896 76.2422 147.734 75.7178 147.682 75.4871C147.63 75.2563 143.587 75.3193 143.587 75.3193C143.587 75.3193 147.845 74.1552 147.75 73.9035Z" fill="white" stroke="#121212" stroke-width="0.5" stroke-linecap="round" stroke-linejoin="round"/>
<path d="M142.312 76.5202C141.785 76.2927 141.204 76.2234 140.639 76.3209C140.377 76.3622 140.125 76.451 139.894 76.5831C139.67 76.7171 139.489 76.9116 139.37 77.1442" stroke="#121212" stroke-width="0.5" stroke-linecap="round" stroke-linejoin="round"/>
<path d="M83.5673 72.6083C82.708 72.6109 81.8653 72.8444 81.1273 73.2845C80.3893 73.7245 79.7831 74.3549 79.3723 75.1095L69.4564 93.342C66.2682 89.383 56.7981 82.5347 53.6728 77.6737C54.1186 75.8122 52.7866 73.8982 53.1485 72.1835C52.1522 71.979 52.6922 74.4698 52.1521 74.926C52.0053 75.0414 50.9933 74.3282 49.6928 73.7776C47.9886 73.0592 45.9016 72.451 45.7233 72.6083C45.414 72.8757 49.0583 74.4436 49.0583 74.4436C49.0583 74.4436 44.575 73.657 44.4753 73.9192C44.3757 74.1814 48.6703 75.3298 48.6703 75.3298C48.6703 75.3298 44.6327 75.2459 44.575 75.4976C44.5173 75.7493 48.3609 76.2527 48.3609 76.2527C48.3609 76.2527 45.1675 76.9711 45.1308 77.2437C45.0941 77.5164 48.4711 77.2437 48.4711 77.2437C49.7295 77.3801 51.439 79.4618 51.439 79.4618C51.439 79.4618 64.3543 100.127 70.0909 101.601C74.9204 100.059 84.5636 82.7234 84.5636 82.7234L83.5673 72.6083Z" fill="white" stroke="#121212" stroke-width="0.5" stroke-linecap="round" stroke-linejoin="round"/>
<path d="M49.8965 76.5202C50.4246 76.2923 51.0077 76.223 51.5745 76.3209C51.8347 76.363 52.0852 76.4519 52.3138 76.5831C52.5379 76.7172 52.7196 76.9116 52.8382 77.1442" stroke="#121212" stroke-width="0.5" stroke-linecap="round" stroke-linejoin="round"/>
<path d="M135.117 78.9479C135.117 78.9479 125.6 85.4868 122.81 89.0106L114.614 76.4624C114.614 76.4624 113.041 72.3566 108.705 72.1311L101.363 72.3933C101.363 72.3933 100.131 74.884 96.0934 74.884C92.0557 74.884 90.6976 72.2622 90.6976 72.2622L83.5032 72.1049C79.1457 72.3303 77.5935 76.4362 77.5935 76.4362L69.3976 88.9844C66.6079 85.4606 57.0906 78.9217 57.0906 78.9217C52.2244 80.9668 51.7734 84.9677 51.7734 84.9677C51.7734 84.9677 66.6342 100.809 70.0583 101.564C76.141 100.285 83.5032 84.3175 83.5032 84.3175C83.8237 88.0173 83.8377 91.7373 83.5452 95.4394C80.5562 119.099 79.8746 143.996 79.8746 143.996C78.0655 155.008 76.7598 162.727 75.753 175.238C85.6007 179.26 96.0986 179.04 96.0986 179.04C102.988 178.343 109.809 177.081 116.491 175.265C113.87 161.773 113.083 157.557 111.971 145.952C111.971 145.952 110.22 118.16 108.689 94.5165C108.689 94.5165 108.453 89.147 108.731 84.3437C108.731 84.3437 116.36 96.8867 122.438 98.1714C125.862 97.4163 140.461 84.9939 140.461 84.9939C140.461 84.9939 139.983 80.993 135.117 78.9479Z" fill="white" stroke="#121212" stroke-width="0.5" stroke-linecap="round" stroke-linejoin="round"/>
<path d="M122.811 89.0106C122.459 89.4452 122.166 89.9249 121.94 90.4369L122.811 89.0106Z" fill="white"/>
<path d="M122.811 89.0106C122.459 89.4452 122.166 89.9249 121.94 90.4369" stroke="#121212" stroke-width="0.5" stroke-linecap="round" stroke-linejoin="round"/>
<path d="M69.4189 89.0106C69.7429 89.4937 70.0338 89.9983 70.2894 90.5208L69.4189 89.0106Z" fill="white"/>
<path d="M69.4189 89.0106C69.7429 89.4937 70.0338 89.9983 70.2894 90.5208" stroke="#121212" stroke-width="0.5" stroke-linecap="round" stroke-linejoin="round"/>
<path d="M83.5664 84.4801C82.8689 82.0312 82.0771 80.0806 82.0771 80.0806L83.5664 84.4801Z" fill="white"/>
<path d="M83.5664 84.4801C82.8689 82.0312 82.0771 80.0806 82.0771 80.0806" stroke="#121212" stroke-width="0.5" stroke-linecap="round" stroke-linejoin="round"/>
<path d="M90.0791 81.1345C92.0877 83.0903 94.6033 84.4453 97.3417 85.0463L97.4728 85.0935" fill="white"/>
<path d="M90.0791 81.1345C92.0877 83.0903 94.6033 84.4453 97.3417 85.0463L97.4728 85.0935" stroke="#121212" stroke-width="0.5" stroke-linecap="round" stroke-linejoin="round"/>
<path d="M91.1387 83.3264C92.972 84.6259 94.9744 85.6686 97.0903 86.4255L91.1387 83.3264Z" fill="white"/>
<path d="M91.1387 83.3264C92.972 84.6259 94.9744 85.6686 97.0903 86.4255" stroke="#121212" stroke-width="0.5" stroke-linecap="round" stroke-linejoin="round"/>
<path d="M86.6494 175.543L87.6248 164.311" stroke="#121212" stroke-width="0.5" stroke-linecap="round" stroke-linejoin="round"/>
<path d="M107.064 175.658L105.7 168.112" stroke="#121212" stroke-width="0.5" stroke-linecap="round" stroke-linejoin="round"/>
<path d="M106.282 166.544L106.801 169.287" stroke="#121212" stroke-width="0.5" stroke-linecap="round" stroke-linejoin="round"/>
<path d="M108.847 106.268C105.927 107.039 102.943 107.543 99.9324 107.773V107.694C99.9121 107.594 99.8551 107.505 99.7726 107.445C99.6901 107.385 99.5881 107.358 99.4867 107.369C99.4057 107.366 99.3254 107.385 99.2537 107.422C99.182 107.46 99.1213 107.516 99.0777 107.584C98.9908 107.535 98.8919 107.513 98.7926 107.518C98.6932 107.524 98.5975 107.557 98.5166 107.615C98.4784 107.641 98.4468 107.675 98.424 107.715C98.4013 107.755 98.3881 107.8 98.3855 107.846V107.841C95.0849 108.007 91.776 107.849 88.5063 107.369C86.6273 107.094 84.7661 106.709 82.9322 106.215C82.4079 106.074 82.1667 106.708 82.6963 106.85C87.8533 108.222 93.1921 108.784 98.5218 108.517V108.58C98.5242 108.626 98.5368 108.67 98.5585 108.71C98.5803 108.75 98.6108 108.784 98.6477 108.811C98.7397 108.875 98.85 108.908 98.9623 108.905C99.0742 108.905 99.1836 108.873 99.2769 108.811C99.3522 108.854 99.4369 108.877 99.5234 108.879C99.7594 108.879 99.9691 108.732 99.9691 108.549V108.433C101.081 108.349 102.185 108.232 103.283 108.082C105.244 107.806 107.186 107.411 109.098 106.897C109.612 106.745 109.382 106.11 108.847 106.268Z" fill="white" stroke="#121212" stroke-width="0.5" stroke-linecap="round" stroke-linejoin="round"/>
<path d="M89.9689 63.0176C89.9689 63.0176 88.9568 62.661 88.6684 62.8078C88.4249 63.0325 88.238 63.3117 88.1232 63.6225C88.0083 63.9333 87.9688 64.2669 88.0077 64.5959C88.0715 65.3368 88.4191 66.0244 88.9778 66.5151C89.198 66.6724 89.413 67.4223 89.9164 67.5324C90.4198 67.6425 90.4932 67.3017 90.4932 67.3017L89.9689 63.0176Z" fill="white" stroke="#121212" stroke-width="0.5" stroke-linecap="round" stroke-linejoin="round"/>
<path d="M101.642 63.0176C101.642 63.0176 102.654 62.661 102.942 62.8078C103.186 63.0325 103.372 63.3117 103.487 63.6225C103.602 63.9333 103.642 64.2669 103.603 64.5959C103.539 65.3368 103.191 66.0244 102.633 66.5151C102.412 66.6724 102.197 67.4223 101.694 67.5324C101.191 67.6425 101.117 67.3017 101.117 67.3017L101.642 63.0176Z" fill="white" stroke="#121212" stroke-width="0.5" stroke-linecap="round" stroke-linejoin="round"/>
<path d="M101.679 64.3179C101.543 65.7306 101.31 67.1323 100.981 68.5129C100.703 68.912 100.366 69.2657 99.9797 69.5616C98.8313 70.5527 96.9907 71.7745 95.7847 71.7745C95.0506 71.7745 94.0647 71.3025 93.1628 70.7257C92.6528 70.3975 92.1657 70.0348 91.7051 69.6403C91.2887 69.3208 90.9243 68.9387 90.6249 68.5076C90.2964 67.1163 90.0634 65.7042 89.9274 64.2812C89.5079 60.92 89.1671 56.6935 89.6548 56.0276C90.0061 55.5452 90.9342 55.0627 91.9935 54.6695C93.2143 54.2058 94.4973 53.9266 95.8004 53.8409C97.4207 53.8409 101.154 54.9369 101.946 56.0276C102.439 56.6935 102.098 60.9409 101.679 64.3179Z" fill="white" stroke="#121212" stroke-width="0.5" stroke-linecap="round" stroke-linejoin="round"/>
<path d="M101.857 62.7711C101.857 62.7711 101.542 61.0878 101.39 60.2593C101.364 60.1073 101.343 59.9867 101.327 59.908C101.243 59.3836 101.453 56.379 101.018 56.1797C100.582 55.9805 98.3642 56.7041 96.0203 56.7041C93.6764 56.7041 90.7766 55.9333 90.441 56.2741C90.1054 56.615 90.3046 59.284 90.2679 59.9133C90.2504 60.1419 90.2206 60.3695 90.1788 60.5949C90.032 61.4916 89.7593 62.7816 89.7593 62.7816C89.7593 62.7816 88.6476 57.4015 89.3083 56.0853C89.969 54.7692 94.2951 53.5579 96.0203 53.5579C97.7455 53.5579 102.171 55.1048 102.313 56.7041C102.454 58.3034 101.857 62.7711 101.857 62.7711Z" fill="#121212" stroke="#121212" stroke-width="0.5" stroke-linecap="round" stroke-linejoin="round"/>
<path d="M95.8052 50.9779C100.167 50.9779 103.702 50.2478 103.702 49.3471C103.702 48.4464 100.167 47.7163 95.8052 47.7163C91.4438 47.7163 87.9082 48.4464 87.9082 49.3471C87.9082 50.2478 91.4438 50.9779 95.8052 50.9779Z" stroke="#121212" stroke-linecap="round" stroke-linejoin="round"/>
</svg>
