<svg id="Layer_1" data-name="Layer 1" xmlns="http://www.w3.org/2000/svg" viewBox="0 0 1000 1000"><path d="M454,919l-17.45-3.29c-30.95-5.8-41.12-16.43-41.71-48.09-.4-22.24,1.38-44.59,3.23-66.8,2.16-25.69,5.51-51.28,8.26-76.93,3.89-36.23,7.56-72.48,11.61-108.69,2.32-20.68,4.27-41.47,8-61.91,6.07-33.07,14.69-37.94,41-41.48,24-3.23,48.12-3.41,72.08.68,19.54,3.34,27.17,11.26,29.62,30.79a303.55,303.55,0,0,1,2.82,34.81c.78,82.42,1.58,164.84,1.51,247.25,0,17.71-2.93,35.51-5.64,53.09-2.92,18.93-14.79,30.42-33.4,34.66-10.15,2.31-20.45,4-30.68,5.91Zm46.64-224.3h.15c1.41-33.45,2.86-66.89,4.17-100.34.32-8.17.23-16.35.21-24.53,0-4.85-3-8-7.42-7.26-3.27.53-6.53,3.27-9,5.79-1.24,1.26-.86,4.23-1,6.44Q481.67,679.89,475.68,785c-.74,13.1-.89,26.23-.89,39.35,0,5.07,2.37,9.32,8.24,9.74,6.14.43,10-2.95,11.32-8.63a72.73,72.73,0,0,0,1.42-13.28Q498.29,753.42,500.66,694.7Z"/><path d="M254.06,919c-7.7-1.7-15.49-3-23.07-5.17-19.45-5.44-27.1-13.14-26.38-33.3a364.79,364.79,0,0,1,8.16-64.75c18.15-82.62,37.24-165,56.4-247.43,2.61-11.25,7.17-22.14,11.62-32.87a32.12,32.12,0,0,1,23.62-19.86,221.63,221.63,0,0,1,91.07-1.12c14.84,2.93,21.1,10.88,21.09,28.06A491.92,491.92,0,0,1,413.26,596q-12.08,110.28-25,220.48c-2.58,22.16-6,44.17-14.19,65.25-6.67,17.27-18.75,27.63-36.52,31.7-8.91,2-17.88,3.74-26.83,5.6Zm96.79-347.17c-.89-1.92-1.51-5.91-3.79-7.43-2.11-1.41-6.83-1.29-8.88.21a15.94,15.94,0,0,0-5.37,9.09c-3.78,19.2-7.06,38.51-10.51,57.78-7.65,42.7-15.41,85.38-22.9,128.11-3.69,21-7,42.07-10.2,63.14-.74,4.81-.14,9.95,5.62,11.49s10.45-1.12,12.89-6.35a47.11,47.11,0,0,0,3.35-12.1q14-84.79,27.83-169.63C342.85,621.91,346.7,597.67,350.85,571.83Z"/><path d="M945,482.55c-7.2.17-14.41.7-21.59.35-2.55-.12-5.51-1.85-7.41-3.72-4.55-4.5-8.58-9.52-13.37-14.95-7.14,16.36-20.56,21.22-36.05,21.09a208.31,208.31,0,0,1-34.74-3c-11.86-2.12-21.56-9.1-25.5-20.7a473.23,473.23,0,0,1-14.83-52c-9.26-42.84-17.55-85.9-26.22-128.86-.2-1-.48-1.93-.62-2.91-2.8-18.95,1.85-26.76,20.82-28.05,21.21-1.45,42.62-.53,63.93.12,11.87.36,21.16,6.76,25.61,17.67,6.5,15.92,11.72,32.36,18.23,50.67-18,0-33.86.16-49.7-.24-1.66,0-4-3.16-4.72-5.29-2.64-8.23-4.61-16.68-7.1-25-.69-2.26-1.85-5.22-3.65-6.12a14.81,14.81,0,0,0-9-1c-.87.17-1.72,4.85-1.15,7.1q17.19,68.44,34.84,136.78c1,3.76,2.22,8.19,4.9,10.57,2.43,2.17,7,2.51,10.59,2.4.81,0,2.59-5.49,2-8-2.82-12-6.13-24-9.74-35.82-.57-1.85-3.63-4.16-5.51-4.13-4.73.07-6.49-1.84-7.5-6.18-2.44-10.57-5.34-21-8.3-32.51h63.88c4.91,15.17,10,31.09,15.21,47Q931.6,438.72,945,479.57Z"/><path d="M578.44,511.24c6.18,0,11.6,0,17,0,27.09.26,54.24-.45,81.26,1.07,32,1.81,40.91,9.26,47.6,40.79,5.25,24.69,8,49.92,11.32,75,8.42,63.72,17,127.42,24.48,191.25,2.2,18.82,1.66,38.09.93,57.09-.65,17.17-11,28.17-27.52,31.84-13.52,3-27.41,5.48-41.19,5.87-33.8,1-67.64.46-101.46.82-5.46.06-7.28-1.48-7.35-7.1q-2.58-195.11-5.46-390.19C578.05,516,578.26,514.26,578.44,511.24Zm65.35,52.26c3.34,51.38,6.65,102.35,10,153.32,2.32,35.88,4.73,71.76,6.83,107.66.31,5.25,1.69,7.46,7.34,7.35,11.15-.22,14.7-3.68,13.84-15.94-1.79-25.46-3.91-50.88-5.86-76.32q-4.33-56.33-8.65-112.65c-1.27-16.3-2.57-32.6-4.09-48.88C661.85,564,657.91,561.06,643.79,563.5Z"/><path d="M277.38,513.41c-3.93,16.87-7.37,32.33-11.34,47.66-.4,1.58-3.89,3.24-6,3.34-9.18.41-18.4,0-27.58.49-2,.1-5.14,2.15-5.62,3.89-6.2,22.44-12,45-18.22,68.59h40c-3.54,15.57-6.71,30-10.12,44.43-4.33,18.23-4.41,18.21-23,18.28-4.72,0-9.52.6-14.15-.06-7.71-1.12-10,2.69-11.69,9.41q-25.76,100.18-52.24,200.18c-.63,2.37-3.74,5.8-5.75,5.83-24.6.39-49.21.25-73.82.21-.66,0-1.32-.49-2.77-1,4.52-14.67,9-29.27,13.52-43.86Q113.25,726.95,158,583.16c6.48-20.82,13.08-41.61,19.28-62.51,1.53-5.14,3.92-6.85,9.35-6.83,27.35.12,54.69-.22,82-.4C271.06,513.4,273.49,513.41,277.38,513.41Z"/><path d="M583.13,280.32c-9.14,68.19-18.27,136.37-27.47,205H488.29c-5.24-77.57-10.45-154.86-15.72-232.83H519q2.84,65.37,5.67,131l1.43.13c4.85-43.61,9.7-87.22,14.62-131.42a49.56,49.56,0,0,1,5.67-.7c26.6-.29,53.2-.41,79.79-.9,5.32-.09,7.4,1.28,7.8,6.86q8,112.09,16.31,224.16a18.1,18.1,0,0,1-.39,2.92H590q-2.58-102.07-5.15-204.12Z"/><path d="M339.91,85.24c-4.59,28-9.07,55.2-13.54,82.45l.81.31q7-18.21,14.05-36.44c5.44-14.09,10.81-28.2,16.47-42.2.77-1.91,3-4.49,4.7-4.55,10.87-.41,21.75-.21,33.61-.21-2,27.2-3.93,53.75-5.87,80.3l1.38.37q1.31-4.36,2.59-8.73,9.78-33.1,19.54-66.21c1.1-3.72,2.38-6.52,7.37-6.53,29.84,0,59.68-.43,89.52-.67a11.44,11.44,0,0,1,2.56.77c-.4,6.54-.79,13.07-1.26,20.87-6.71,0-13.12-.28-19.48.18-1.78.13-4.68,2.26-4.88,3.77-1.08,8-1.46,16.16-2.14,25h25c-.49,8.19-.93,15.66-1.45,24.25H482.78l-4.12,48.9H505.8c-.5,9.08-.79,17.4-1.58,25.66-.12,1.19-2.61,3.08-4,3.09-23.58.19-47.16.13-72.2.13q8.43-60.18,16.87-120.54l-.87-.25q-7,21.58-13.94,43.18c-7.79,24.29-15.47,48.62-23.47,72.83-.75,2.25-3.49,5.4-5.38,5.46-15.36.44-30.75.25-47.45.25q5.14-45.32,10.26-90.39l-1-.32L348.86,187c-5.28,15.19-10.47,30.41-16,45.53-.71,2-2.94,4.78-4.52,4.82-15.58.36-31.17.22-47.7.22,1.82-13.37,3.52-26.08,5.28-38.78q5.71-41.22,11.49-82.44c1.24-8.8,2.53-17.6,4.14-26.33.32-1.74,2.15-4.54,3.36-4.58C316.3,85.1,327.67,85.24,339.91,85.24Z"/><path d="M712.3,484.73c-17.31,0-33.64.12-49.95-.24-1.17,0-3.12-3.44-3.29-5.41-2.28-25.95-4.25-51.93-6.42-77.89-3.23-38.55-6.61-77.09-9.82-115.64-1-11.31-1.53-22.66-2.36-35.21,14.88,0,29-.22,43.07.29,1.72.06,3.92,3.81,4.86,6.25,11.89,30.73,23.6,61.54,35.36,92.32a3,3,0,0,0,1.57,1.77c-5.11-33.09-10.22-66.18-15.62-101.2,13.95,0,27-.16,40,.24,1.39,0,3.49,3.2,3.9,5.19,7.65,37.65,15.09,75.34,22.59,113Q786.55,420.4,797,472.57c.67,3.37,1.22,6.76,2,11.44-5.35,0-10,0-14.56,0-6.72,0-13.43.2-20.14.11-7.4-.11-16.66,2.15-21.66-1.42s-5.92-13.07-8.47-20q-17.24-47.15-34.38-94.3a6.52,6.52,0,0,0-2.54-3.5C702.21,404.37,707.17,443.86,712.3,484.73Z"/><path d="M273.79,381.41c-4.08,15.76-8,30.82-11.87,45.88a32.87,32.87,0,0,0-.94,3.6c-.6,4.21-3.18,9.1,2.73,11.59,4.71,2,10.85-1.53,12.65-7.55,2.42-8.06,4.25-16.3,6.27-24.48,1.55-6.26,2.49-12.73,4.62-18.78,2.71-7.72-.4-12.3-6.7-16Q265.72,367.1,251,358.37c-14-8.33-18.54-18.13-13.88-33.85,5.19-17.52,11.17-34.85,17.73-51.91,3.69-9.58,11.8-15.14,22.07-17,23.18-4.24,46.5-5,69.74-1.21,15.53,2.5,20.24,9.75,17.43,25.2-2.63,14.37-5.8,28.65-8.89,43.79H304c2.31-9.38,4.92-18.6,6.73-28,.72-3.7,4.56-9.32-2.61-11-5.95-1.4-9.26,2.28-10.71,7.77-1.91,7.18-3.63,14.41-5.69,21.54s.1,11.89,6.76,15.24c9.53,4.81,18.91,9.94,28.25,15.13,15.1,8.37,20.08,17.31,17.11,34.26-4.4,25.15-9.45,50.2-14.86,75.15-4.29,19.83-16.68,31.71-37.3,34-24.29,2.72-48.62,3.52-72.87-.29-19.73-3.1-25.5-9.68-21.69-29.38,3.85-19.87,10.19-39.28,16-58.73,5.27-17.67,5.59-17.6,24.23-17.69C249.18,381.36,261.06,381.41,273.79,381.41Z"/><path d="M469.92,485.88H413.5V432c-5.67,0-12.28-.32-18.82.25-1.4.12-3.16,3.3-3.67,5.33-3.56,14.44-6.72,29-10.35,43.41-.54,2.15-2.83,5.49-4.37,5.53-17.32.39-34.65.25-53.16.25,4.47-13.81,8.66-26.7,12.82-39.59q30-93,59.93-186c2-6.18,4.75-8.48,11.43-8.33,14.9.34,29.84-.17,44.75-.63,4.48-.14,6.05,1.29,6.26,5.82q3.19,69.17,6.73,138.3C466.55,425.76,468.24,455.21,469.92,485.88ZM420.78,312.14l-1.27-.19-18.19,78h15.83C418.37,363.84,419.57,338,420.78,312.14Z"/><path d="M670.15,228.86c-1.86-16-4-32-5.56-48-1.25-13.24-5.94-23.51-20.7-27.61,13.12-4.19,15.7-13.59,14.45-25.05-.75-6.88-1.3-13.81-2.59-20.6C652,87.56,648,83.46,627.36,82.47c-19.57-.92-39.22,0-58.83-.41-6.73-.17-8.31,2-8.28,8.44.24,45.65.09,91.31.09,137,0,2.39.24,4.79.36,7.07h47.8c-.9-22.41-1.78-44.11-2.66-65.76,10.22-.69,11.95.72,12.52,9.64,1,16.58,1.89,33.16,3.21,49.72.18,2.31,2.38,6.36,3.77,6.4,14.81.47,29.64.3,44.83.3C670.17,231.73,670.32,230.28,670.15,228.86Zm-65.91-89.61c-.68-11.34-1.39-22.8-2.1-34.71,9.91-1.53,11.38-.49,12,7.78.4,5.67.56,11.37,1.1,17C616.05,138.21,614.93,139.45,604.24,139.25Z"/><path d="M752.93,233.37h-76.8C670,182.76,663.82,132.26,657.57,81h64.51l4,21.33h-24c1.58,10,3,19.11,4.57,28.94,7.2,0,14.11-.31,21,.19,1.92.14,4.8,2.35,5.29,4.14,1.72,6.37,2.61,13,4,20.29H711.27c1.48,9.22,2.79,17.61,4.16,26,.92,5.63,2.42,11.21,2.76,16.86.34,5.44,2.86,6.62,7.67,6.22s10,0,14.89-.47c5.17-.53,7,1.66,7.72,6.49C749.55,218.23,751.3,225.38,752.93,233.37Z"/><path d="M516.37,134.36c.54-5.32.91-8.9,1.26-12.29,16-3.33,16-3.35,15.79-14.91H518.2c.53-8.55,1-16.11,1.52-24.79,10.52,0,20.64-.16,30.74.18,1.31,0,3.66,2.64,3.64,4-.14,9.63-.44,19.29-1.34,28.88-.81,8.56-5.87,14.12-14.41,15.77C531.45,132.56,524.42,133.24,516.37,134.36Z"/></svg>