<svg width="600" height="566" viewBox="0 0 600 566" fill="none" xmlns="http://www.w3.org/2000/svg">
<path d="M269.058 565.325L257.297 563.01C236.461 559.097 229.516 551.944 229.192 530.599C229.154 515.562 229.88 500.533 231.368 485.57C232.803 468.253 235.072 451.006 236.924 433.712C239.54 409.288 242.017 384.864 244.749 360.44C246.323 346.549 247.643 332.497 250.166 318.768C254.241 296.474 260.075 293.187 277.785 290.802C293.92 288.485 310.314 288.642 326.402 291.265C339.575 293.58 344.738 298.859 346.381 312.101C347.464 319.883 348.098 327.721 348.28 335.576C348.812 391.138 349.345 446.7 349.298 502.262C348.944 514.271 347.674 526.236 345.502 538.053C343.534 550.809 335.524 558.565 322.976 561.412C316.146 562.964 309.201 564.075 302.302 565.394L269.058 565.325ZM300.496 414.127H300.612C301.538 391.578 302.534 369.052 303.413 346.503C303.622 340.993 303.575 335.483 303.552 329.95C303.552 326.686 301.538 324.579 298.552 325.065C296.189 325.745 294.079 327.106 292.486 328.978C291.653 329.811 291.907 331.825 291.815 333.307C289.068 380.535 286.351 427.755 283.666 474.967C283.156 483.788 283.064 492.654 283.064 501.498C282.96 502.3 283.025 503.114 283.254 503.89C283.484 504.665 283.872 505.384 284.395 506.001C284.918 506.617 285.564 507.118 286.291 507.471C287.019 507.824 287.812 508.021 288.62 508.05C290.4 508.287 292.202 507.808 293.63 506.719C295.057 505.629 295.995 504.018 296.237 502.239C296.828 499.295 297.154 496.304 297.209 493.303C298.351 466.911 299.447 440.519 300.496 414.127Z" fill="#121212"/>
<path d="M134.274 565.325C129.088 564.167 123.833 563.264 118.717 561.829C105.613 558.171 100.451 552.985 100.937 539.396C101.469 524.752 103.313 510.186 106.447 495.872C118.67 440.171 131.542 384.609 144.46 329.186C146.464 321.601 149.081 314.192 152.285 307.031C153.601 303.641 155.75 300.638 158.534 298.299C161.318 295.96 164.647 294.361 168.213 293.65C188.405 289.15 209.311 288.89 229.609 292.886C239.61 294.877 243.824 300.224 243.824 311.8C243.712 323.833 242.939 335.851 241.509 347.799C236.091 397.373 230.489 446.916 224.701 496.428C222.965 511.36 220.627 526.2 215.14 540.414C213.264 545.821 210.001 550.64 205.678 554.389C201.356 558.139 196.124 560.689 190.507 561.783C184.511 563.148 178.446 564.306 172.427 565.556L134.274 565.325ZM199.513 331.316C198.911 330.02 198.494 327.311 196.966 326.292C196.03 325.829 194.996 325.599 193.951 325.624C192.907 325.648 191.884 325.925 190.97 326.431C189.108 328.01 187.836 330.172 187.359 332.566C184.812 345.508 182.59 358.518 180.275 371.506C175.112 400.306 169.88 429.059 164.833 457.882C162.356 472.027 160.203 486.218 157.888 500.433C157.402 503.674 157.888 507.147 161.685 508.188C163.414 508.721 165.282 508.572 166.905 507.771C168.528 506.971 169.783 505.579 170.412 503.882C171.547 501.283 172.326 498.541 172.728 495.733C179.025 457.627 185.275 419.513 191.48 381.391C194.119 365.07 196.712 348.725 199.513 331.316Z" fill="#121212"/>
<path d="M600 271.124C595.161 271.239 590.277 271.587 585.461 271.355C583.563 271.101 581.803 270.221 580.461 268.855C577.382 265.822 574.673 262.442 571.455 258.784C566.616 269.804 557.564 273.068 547.147 272.999C539.294 272.97 531.457 272.289 523.718 270.962C519.855 270.448 516.208 268.88 513.177 266.43C510.147 263.979 507.85 260.741 506.54 257.071C502.529 245.6 499.189 233.904 496.539 222.044C490.288 193.152 484.709 164.167 478.852 135.182C478.852 134.534 478.551 133.885 478.458 133.214C476.56 120.458 479.685 115.18 492.487 114.323C506.771 113.328 521.218 113.953 535.571 114.323C539.315 114.328 542.97 115.468 546.053 117.593C549.136 119.717 551.503 122.726 552.842 126.223C557.217 136.965 560.736 148.054 565.135 160.393C552.981 160.393 542.308 160.393 531.635 160.231C530.501 160.231 528.904 158.101 528.441 156.666C526.658 151.11 525.338 145.415 523.648 139.835C523.185 138.307 522.421 136.316 521.194 135.714C519.294 134.857 517.171 134.622 515.129 135.043C514.55 135.043 513.971 138.307 514.365 139.835C522.082 170.58 529.907 201.308 537.84 232.022C538.275 234.656 539.419 237.121 541.15 239.152C543.274 240.487 545.789 241.058 548.281 240.773C549.388 239.206 549.874 237.284 549.647 235.379C547.725 227.253 545.503 219.173 543.072 211.232C542.727 210.497 542.206 209.857 541.557 209.368C540.907 208.88 540.147 208.558 539.345 208.431C536.173 208.431 534.969 207.204 534.298 204.264C532.654 197.157 530.709 190.096 528.695 182.363H571.779C575.066 192.596 578.516 203.199 582.012 214.034L600 269.11V271.124Z" fill="#121212"/>
<path d="M352.935 290.455C357.102 290.455 360.759 290.455 364.394 290.455C382.66 290.64 400.973 290.154 419.192 291.195C440.746 292.399 446.765 297.423 451.279 318.676C454.798 335.321 456.673 352.337 458.896 369.237C464.568 412.182 470.356 455.127 475.402 498.164C476.595 510.955 476.804 523.818 476.028 536.641C475.588 548.216 468.642 555.624 457.507 558.102C448.39 560.282 439.089 561.607 429.726 562.06C406.945 562.685 384.142 562.361 361.338 562.616C357.657 562.616 356.43 561.597 356.384 557.824C355.226 470.144 353.999 382.471 352.703 294.807C352.68 293.649 352.819 292.492 352.935 290.455ZM396.921 325.69C399.236 360.417 401.389 394.68 403.612 429.036C405.186 453.228 406.806 477.421 408.242 501.613C408.45 505.156 409.399 506.637 413.196 506.568C420.72 506.406 423.105 504.091 422.456 495.826C421.253 478.671 419.817 461.516 418.498 444.361C416.707 419.065 414.809 393.792 412.803 368.542C411.946 357.569 411.066 346.572 410.048 335.599C409.168 326.061 406.552 324.047 396.991 325.69H396.921Z" fill="#121212"/>
<path d="M149.994 291.936C147.355 303.303 145.017 313.721 142.355 324.047C142.077 325.112 139.738 326.246 138.303 326.362C132.099 326.64 125.894 326.362 119.782 326.709C118.986 326.781 118.22 327.044 117.547 327.475C116.874 327.906 116.314 328.493 115.916 329.186C111.726 344.304 107.813 359.514 103.623 375.488H130.594C128.279 385.998 125.964 395.745 123.649 405.445C120.732 417.738 120.685 417.715 108.138 417.761C104.963 418.004 101.774 418.004 98.5994 417.761C93.3905 417.02 91.8857 419.567 90.705 424.105C79.1296 469.141 67.3921 514.123 55.4926 559.051C55.0759 560.648 52.9691 562.963 51.6264 562.986C35.0504 563.241 18.4512 563.148 1.85207 563.125C1.20426 562.974 0.58085 562.732 0 562.408C3.08678 552.514 6.12726 542.66 9.12143 532.844C29.1855 468.222 49.2496 403.601 69.3136 338.979C73.666 324.949 78.1341 310.943 82.3012 296.844C82.4025 296.121 82.6477 295.425 83.0225 294.798C83.3973 294.171 83.894 293.626 84.4832 293.194C85.0725 292.763 85.7423 292.453 86.4531 292.285C87.1638 292.117 87.9012 292.093 88.6214 292.214C107.142 292.214 125.478 292.052 143.906 291.936H149.994Z" fill="#121212"/>
<path d="M356.105 134.719C349.947 180.673 343.766 226.628 337.584 272.883H292.162C288.643 220.585 285.217 168.496 281.559 115.944H312.836C314.102 145.268 315.383 174.708 316.679 204.264H317.628C320.893 174.862 324.18 145.461 327.491 115.666C328.753 115.433 330.029 115.279 331.31 115.203C349.229 114.994 367.171 114.925 385.09 114.601C388.678 114.601 390.09 115.457 390.345 119.231C393.941 169.607 397.607 219.976 401.342 270.337C401.318 270.999 401.233 271.658 401.087 272.304H360.735L357.263 134.719H356.105Z" fill="#121212"/>
<path d="M192.151 3.31485C189.049 22.1365 186.04 40.5183 182.891 58.8769L183.447 59.0852C186.533 50.9053 189.69 42.7176 192.915 34.5222C196.596 25.0303 200.208 15.5153 204.028 6.0698C204.537 4.7965 206.065 3.06019 207.199 3.01389C214.515 2.73608 221.854 2.87498 229.841 2.87498L225.975 57.0016L226.901 57.2563C227.503 55.2885 228.081 53.3207 228.66 51.376C233.059 36.4977 237.45 21.6194 241.833 6.74117C242.574 4.21773 243.43 2.34251 246.787 2.34251C266.905 2.34251 287.023 2.04155 307.142 1.8795C307.73 1.98502 308.304 2.15585 308.855 2.38882L308.021 16.4645C303.391 16.4645 299.178 16.2793 294.895 16.4645C293.691 16.4645 291.723 17.9925 291.584 19.0111C290.867 24.4284 290.612 29.9152 290.149 35.8418H307.003C306.679 41.3748 306.378 46.3986 306.03 52.1863H288.482C287.533 63.4607 286.63 74.0407 285.704 85.1531H303.993C303.646 91.288 303.461 96.8905 302.928 102.447C302.687 102.993 302.313 103.47 301.84 103.834C301.366 104.198 300.809 104.438 300.219 104.53C284.315 104.669 268.433 104.53 251.603 104.53C255.322 77.629 259.127 50.6506 263.016 23.595L262.437 23.4329C259.351 33.1254 256.217 42.8256 253.038 52.5335C247.783 68.9012 242.62 85.3151 237.203 101.636C236.717 103.141 234.888 105.271 233.591 105.317C223.22 105.618 212.756 105.48 201.597 105.48L208.542 44.5465L207.894 44.3381L198.309 72.1191C194.767 82.3518 191.364 92.6076 187.568 102.794C187.081 104.137 185.577 106.035 184.512 106.058C174.001 106.29 163.491 106.197 152.355 106.197C153.582 97.1915 154.67 88.6257 155.92 80.0599C158.482 61.5392 161.06 43.0185 163.653 24.4979C164.486 18.5712 165.366 12.6446 166.454 6.76432C166.662 5.58363 167.912 3.70841 168.769 3.68526C176.224 3.19909 183.887 3.31485 192.151 3.31485Z" fill="#121212"/>
<path d="M443.175 272.582C431.6 272.582 420.488 272.582 409.491 272.42C408.704 272.42 407.384 270.105 407.176 268.786C405.648 251.283 404.328 233.781 402.847 216.279C400.67 190.281 398.402 164.306 396.225 138.331C395.6 130.691 395.207 123.051 394.651 114.601C404.676 114.601 414.19 114.439 423.682 114.786C424.84 114.786 426.322 117.356 426.947 119C434.98 139.835 442.851 160.486 450.792 181.229C450.876 181.493 451.014 181.736 451.198 181.943C451.381 182.15 451.606 182.317 451.857 182.433C448.407 160.115 444.912 137.821 441.323 114.207C450.723 114.207 459.497 114.207 468.271 114.369C469.197 114.369 470.586 116.522 470.887 117.865C476.05 143.331 481.073 168.658 486.12 194.055C490.75 217.514 495.419 240.958 500.126 264.387C500.589 266.702 500.96 269.017 501.516 272.096H491.7C487.069 272.096 482.648 272.235 478.11 272.096C473.133 272.096 466.905 273.555 463.525 271.147C460.145 268.739 459.52 262.35 457.807 257.65L434.656 194.101C434.371 193.154 433.765 192.335 432.943 191.786C436.369 218.409 439.703 245.033 443.175 272.582Z" fill="#121212"/>
<path d="M147.562 202.944C144.83 213.571 142.191 223.78 139.575 233.874C139.317 234.633 139.101 235.406 138.927 236.189C138.533 239.013 136.797 242.324 140.779 243.991C143.951 245.334 148.095 242.972 149.298 238.898C150.942 233.48 152.169 227.924 153.535 222.414C154.577 218.178 155.202 213.825 156.637 209.751C158.466 204.542 156.383 201.463 152.007 198.986C145.34 195.127 138.695 191.269 132.074 187.41C122.652 181.808 119.573 175.187 122.814 164.607C126.425 152.777 130.361 141.109 134.783 129.603C136 126.517 138.024 123.815 140.642 121.779C143.261 119.742 146.378 118.447 149.669 118.027C165.17 115.055 181.068 114.773 196.665 117.194C207.152 118.884 210.324 123.769 208.426 134.186C206.643 143.887 204.513 153.517 202.43 163.704H167.912C169.463 157.384 171.222 151.179 172.542 144.859C173.005 142.359 175.598 138.585 170.782 137.428C166.754 136.502 164.532 138.979 163.559 142.683C162.263 147.521 161.105 152.383 159.716 157.198C159.321 158.175 159.128 159.222 159.149 160.275C159.17 161.328 159.403 162.366 159.836 163.327C160.269 164.287 160.891 165.15 161.666 165.864C162.442 166.577 163.353 167.126 164.346 167.477C170.782 170.718 177.103 174.168 183.4 177.664C193.563 183.313 196.92 189.239 194.975 200.815C191.989 217.761 188.585 234.638 184.951 251.469C182.057 264.827 173.699 272.837 159.809 274.388C143.5 276.537 126.975 276.475 110.683 274.203C97.3942 272.119 93.5049 267.674 96.0746 254.386C98.6443 241.097 103.02 227.924 106.84 214.798C110.382 202.898 110.613 202.944 123.184 202.875C131.056 202.921 138.996 202.944 147.562 202.944Z" fill="#121212"/>
<path d="M279.777 273.369H241.763V237.046C237.92 237.046 233.475 236.837 229.054 237.231C228.128 237.231 226.924 239.546 226.6 240.819C224.284 250.543 221.969 260.359 219.654 270.082C219.284 271.517 217.756 273.786 216.714 273.809C205.139 274.064 193.355 273.971 180.877 273.971C183.886 264.711 186.711 255.983 189.512 247.278C203.001 205.483 216.467 163.681 229.91 121.87C231.253 117.703 233.128 116.152 237.619 116.268C247.667 116.499 257.737 116.268 267.715 115.828C270.748 115.828 271.79 116.708 271.929 119.764C273.364 150.832 274.908 181.908 276.559 212.992C277.508 232.832 278.643 252.788 279.777 273.369ZM246.648 156.249H245.792C241.74 173.636 237.689 190.976 233.545 208.802H244.217C245.028 191.091 245.838 173.682 246.648 156.249Z" fill="#121212"/>
<path d="M414.747 100.108C413.497 89.3432 412.039 78.578 410.997 67.6971C410.163 58.7841 406.992 51.862 397.106 49.1765C405.95 46.3289 407.686 39.9161 406.83 32.2763C406.344 27.6462 405.95 23.016 405.093 18.3858C402.524 4.86575 399.861 2.18026 385.948 1.43943C372.775 0.814357 359.509 1.43943 346.29 1.16162C341.776 1.16162 340.688 2.50437 340.711 6.85673C340.873 37.6242 340.711 68.3917 340.711 99.1591C340.711 100.78 340.873 102.4 340.942 103.928H373.168C372.567 88.8338 371.965 74.2025 371.386 59.6175C378.331 59.1545 379.442 60.0805 379.813 66.0997C380.507 77.2816 381.086 88.4634 381.989 99.6221C381.989 101.173 383.586 103.905 384.536 103.928C394.514 104.252 404.515 104.137 414.747 104.137C414.77 102.053 414.863 101.081 414.747 100.108ZM370.321 39.8004C369.858 32.1606 369.395 24.4282 368.909 16.418C375.576 15.3762 376.572 16.0708 376.965 21.6501C377.243 25.47 377.359 29.313 377.729 33.2255C378.285 39.0132 377.521 39.8004 370.321 39.8004Z" fill="#121212"/>
<path d="M470.54 103.164H418.775C414.631 69.04 410.487 34.9851 406.274 0.444092H449.751C450.607 4.9122 451.487 9.56552 452.459 14.8208H436.254C437.319 21.5577 438.291 27.6926 439.333 34.3369C444.195 34.3369 448.848 34.1286 453.478 34.3369C454.253 34.4846 454.981 34.816 455.602 35.3035C456.222 35.7909 456.716 36.4201 457.043 37.1382C458.201 41.4211 458.803 45.8892 459.706 50.8203H442.435C443.431 57.0247 444.31 62.6735 445.236 68.3223C445.838 72.1191 446.857 75.8695 447.088 79.6894C447.32 83.5093 449.01 84.1575 452.251 83.8797C455.492 83.6019 458.965 83.8797 462.299 83.5556C465.632 83.2315 466.929 84.69 467.508 87.9311C468.271 93.0474 469.452 97.6776 470.54 103.164Z" fill="#121212"/>
<path d="M311.101 36.4205L311.934 28.1325C322.746 25.8174 322.746 25.8174 322.584 18.085H312.328C312.675 12.3205 312.999 7.22729 313.346 1.37012C320.431 1.37012 327.237 1.37013 334.066 1.48588C334.676 1.68459 335.223 2.03903 335.653 2.51411C336.084 2.98919 336.383 3.56845 336.52 4.19453C336.52 10.6999 336.243 17.2053 335.617 23.6644C335.514 26.2953 334.484 28.805 332.709 30.7496C330.934 32.6942 328.528 33.9485 325.917 34.2906C321.264 35.1703 316.518 35.6565 311.101 36.4205Z" fill="#121212"/>
</svg>
